<svg width="1282" height="311" viewBox="0 0 1282 311" fill="none" xmlns="http://www.w3.org/2000/svg">
<g clip-path="url(#clip0)">
<rect width="1282" height="311" fill="white"/>
<g filter="url(#filter0_i)">
<path d="M288 157C288 227.692 230.692 285 160 285C89.3075 285 32 227.692 32 157C32 86.3075 89.3075 29 160 29C230.692 29 288 86.3075 288 157Z" stroke="#828282" stroke-opacity="0.5" stroke-width="50"/>
</g>
<g filter="url(#filter1_i)">
<path d="M385.3 261.3C380.9 261.3 377.2 259.9 374.2 257.1C371.4 254.1 370 250.4 370 246V112.2C370 107.6 371.4 103.9 374.2 101.1C377.2 98.3 380.9 96.9 385.3 96.9C389.9 96.9 393.6 98.3 396.4 101.1C399.2 103.9 400.6 107.6 400.6 112.2V115.5C406.8 109.3 414.3 104.4 423.1 100.8C431.9 97.2 441.4 95.4 451.6 95.4C465.4 95.4 477.7 98.4 488.5 104.4C499.5 110.2 508.1 118.8 514.3 130.2C520.7 141.6 523.9 155.6 523.9 172.2V246C523.9 250.4 522.4 254.1 519.4 257.1C516.6 259.9 513 261.3 508.6 261.3C504.2 261.3 500.5 259.9 497.5 257.1C494.7 254.1 493.3 250.4 493.3 246V172.2C493.3 155.2 488.7 142.8 479.5 135C470.5 127 459.2 123 445.6 123C437.2 123 429.6 124.7 422.8 128.1C416 131.5 410.6 136.1 406.6 141.9C402.6 147.5 400.6 154 400.6 161.4V246C400.6 250.4 399.2 254.1 396.4 257.1C393.6 259.9 389.9 261.3 385.3 261.3ZM648.892 262.2C632.692 262.2 618.392 258.7 605.992 251.7C593.592 244.5 583.792 234.7 576.592 222.3C569.592 209.7 566.092 195.3 566.092 179.1C566.092 162.7 569.592 148.3 576.592 135.9C583.792 123.3 593.592 113.5 605.992 106.5C618.392 99.3 632.692 95.7 648.892 95.7C664.892 95.7 679.092 99.3 691.492 106.5C703.892 113.5 713.592 123.3 720.592 135.9C727.792 148.3 731.392 162.7 731.392 179.1C731.392 195.3 727.892 209.7 720.892 222.3C713.892 234.7 704.192 244.5 691.792 251.7C679.392 258.7 665.092 262.2 648.892 262.2ZM648.892 235.2C659.292 235.2 668.492 232.8 676.492 228C684.492 223.2 690.692 216.6 695.092 208.2C699.692 199.8 701.992 190.1 701.992 179.1C701.992 168.1 699.692 158.4 695.092 150C690.692 141.4 684.492 134.7 676.492 129.9C668.492 125.1 659.292 122.7 648.892 122.7C638.492 122.7 629.292 125.1 621.292 129.9C613.292 134.7 606.992 141.4 602.392 150C597.792 158.4 595.492 168.1 595.492 179.1C595.492 190.1 597.792 199.8 602.392 208.2C606.992 216.6 613.292 223.2 621.292 228C629.292 232.8 638.492 235.2 648.892 235.2ZM836.634 261C826.634 261 817.634 258.5 809.634 253.5C801.634 248.3 795.334 241.3 790.734 232.5C786.134 223.7 783.834 213.8 783.834 202.8V128.7H770.034C765.834 128.7 762.434 127.5 759.834 125.1C757.234 122.7 755.934 119.7 755.934 116.1C755.934 112.1 757.234 108.9 759.834 106.5C762.434 104.1 765.834 102.9 770.034 102.9H783.834V59.7C783.834 55.3 785.234 51.7 788.034 48.9C790.834 46.1 794.434 44.7 798.834 44.7C803.234 44.7 806.834 46.1 809.634 48.9C812.434 51.7 813.834 55.3 813.834 59.7V102.9H839.334C843.534 102.9 846.934 104.1 849.534 106.5C852.134 108.9 853.434 112.1 853.434 116.1C853.434 119.7 852.134 122.7 849.534 125.1C846.934 127.5 843.534 128.7 839.334 128.7H813.834V202.8C813.834 210.8 816.034 217.5 820.434 222.9C824.834 228.3 830.234 231 836.634 231H846.834C850.434 231 853.434 232.4 855.834 235.2C858.434 238 859.734 241.6 859.734 246C859.734 250.4 858.034 254 854.634 256.8C851.434 259.6 847.234 261 842.034 261H836.634ZM974.444 262.2C957.844 262.2 943.044 258.7 930.044 251.7C917.244 244.5 907.144 234.7 899.744 222.3C892.544 209.7 888.944 195.3 888.944 179.1C888.944 162.7 892.344 148.3 899.144 135.9C906.144 123.3 915.744 113.5 927.944 106.5C940.144 99.3 954.144 95.7 969.944 95.7C985.544 95.7 998.944 99.2 1010.14 106.2C1021.34 113 1029.84 122.5 1035.64 134.7C1041.64 146.7 1044.64 160.6 1044.64 176.4C1044.64 180.2 1043.34 183.4 1040.74 186C1038.14 188.4 1034.84 189.6 1030.84 189.6H916.844C919.044 203.4 925.344 214.7 935.744 223.5C946.344 232.1 959.244 236.4 974.444 236.4C980.644 236.4 986.944 235.3 993.344 233.1C999.944 230.7 1005.24 228 1009.24 225C1012.24 222.8 1015.44 221.7 1018.84 221.7C1022.44 221.5 1025.54 222.5 1028.14 224.7C1031.54 227.7 1033.34 231 1033.54 234.6C1033.74 238.2 1032.14 241.3 1028.74 243.9C1021.94 249.3 1013.44 253.7 1003.24 257.1C993.244 260.5 983.644 262.2 974.444 262.2ZM969.944 121.5C955.144 121.5 943.244 125.6 934.244 133.8C925.244 142 919.544 152.6 917.144 165.6H1017.04C1015.24 152.8 1010.34 142.3 1002.34 134.1C994.344 125.7 983.544 121.5 969.944 121.5ZM1146.21 262.2C1131.61 262.2 1118.51 258.6 1106.91 251.4C1095.31 244 1086.11 234.1 1079.31 221.7C1072.71 209.1 1069.41 194.9 1069.41 179.1C1069.41 163.3 1073.01 149.1 1080.21 136.5C1087.61 123.9 1097.51 114 1109.91 106.8C1122.51 99.4 1136.61 95.7 1152.21 95.7C1167.81 95.7 1181.81 99.4 1194.21 106.8C1206.61 114 1216.41 123.9 1223.61 136.5C1231.01 149.1 1234.71 163.3 1234.71 179.1V246C1234.71 250.4 1233.21 254.1 1230.21 257.1C1227.41 259.9 1223.81 261.3 1219.41 261.3C1215.01 261.3 1211.31 259.9 1208.31 257.1C1205.51 254.1 1204.11 250.4 1204.11 246V234.9C1197.11 243.3 1188.61 250 1178.61 255C1168.81 259.8 1158.01 262.2 1146.21 262.2ZM1152.21 235.2C1162.41 235.2 1171.51 232.8 1179.51 228C1187.51 223 1193.81 216.3 1198.41 207.9C1203.01 199.3 1205.31 189.7 1205.31 179.1C1205.31 168.3 1203.01 158.7 1198.41 150.3C1193.81 141.7 1187.51 135 1179.51 130.2C1171.51 125.2 1162.41 122.7 1152.21 122.7C1142.21 122.7 1133.11 125.2 1124.91 130.2C1116.91 135 1110.51 141.7 1105.71 150.3C1101.11 158.7 1098.81 168.3 1098.81 179.1C1098.81 189.7 1101.11 199.3 1105.71 207.9C1110.51 216.3 1116.91 223 1124.91 228C1133.11 232.8 1142.21 235.2 1152.21 235.2Z" fill="#828282"/>
</g>
</g>
<defs>
<filter id="filter0_i" x="7" y="4" width="306" height="310" filterUnits="userSpaceOnUse" color-interpolation-filters="sRGB">
<feFlood flood-opacity="0" result="BackgroundImageFix"/>
<feBlend mode="normal" in="SourceGraphic" in2="BackgroundImageFix" result="shape"/>
<feColorMatrix in="SourceAlpha" type="matrix" values="0 0 0 0 0 0 0 0 0 0 0 0 0 0 0 0 0 0 127 0" result="hardAlpha"/>
<feOffset dy="4"/>
<feGaussianBlur stdDeviation="2"/>
<feComposite in2="hardAlpha" operator="arithmetic" k2="-1" k3="1"/>
<feColorMatrix type="matrix" values="0 0 0 0 0 0 0 0 0 0 0 0 0 0 0 0 0 0 0.25 0"/>
<feBlend mode="normal" in2="shape" result="effect1_innerShadow"/>
</filter>
<filter id="filter1_i" x="370" y="44.7" width="864.713" height="221.5" filterUnits="userSpaceOnUse" color-interpolation-filters="sRGB">
<feFlood flood-opacity="0" result="BackgroundImageFix"/>
<feBlend mode="normal" in="SourceGraphic" in2="BackgroundImageFix" result="shape"/>
<feColorMatrix in="SourceAlpha" type="matrix" values="0 0 0 0 0 0 0 0 0 0 0 0 0 0 0 0 0 0 127 0" result="hardAlpha"/>
<feOffset dy="4"/>
<feGaussianBlur stdDeviation="2"/>
<feComposite in2="hardAlpha" operator="arithmetic" k2="-1" k3="1"/>
<feColorMatrix type="matrix" values="0 0 0 0 0 0 0 0 0 0 0 0 0 0 0 0 0 0 0.25 0"/>
<feBlend mode="normal" in2="shape" result="effect1_innerShadow"/>
</filter>
<clipPath id="clip0">
<rect width="1282" height="311" fill="white"/>
</clipPath>
</defs>
</svg>
